HIERARCHY
ROOT Hips
{
    OFFSET 0.000000 0.000000 0.000000
    CHANNELS 6 Xposition Yposition Zposition Zrotation Xrotation Yrotation
    JOINT Spine
    {
        OFFSET -0.000000 6.845686 0.000000
        CHANNELS 3 Zrotation Xrotation Yrotation
        JOINT Spine1
        {
            OFFSET -0.000000 17.766665 0.000000
            CHANNELS 3 Zrotation Xrotation Yrotation
            JOINT Neck
            {
                OFFSET -0.000000 17.693701 1.608518
                CHANNELS 3 Zrotation Xrotation Yrotation
                JOINT Head
                {
                    OFFSET -0.000000 11.687756 -1.669679
                    CHANNELS 3 Zrotation Xrotation Yrotation
                    End Site
                    {
                        OFFSET -0.000000 20.870993 0.000000
                    }
                }
            }
            JOINT LeftShoulder
            {
                OFFSET 3.337134 14.750981 0.036037
                CHANNELS 3 Zrotation Xrotation Yrotation
                JOINT LeftArm
                {
                    OFFSET 13.437092 0.000000 0.000000
                    CHANNELS 3 Zrotation Xrotation Yrotation
                    JOINT LeftForeArm
                    {
                        OFFSET 22.625980 0.000000 0.000000
                        CHANNELS 3 Zrotation Xrotation Yrotation
                        JOINT LeftHand
                        {
                            OFFSET 20.313534 0.000000 0.000000
                            CHANNELS 3 Zrotation Xrotation Yrotation
                            End Site
                            {
                                OFFSET 12.522596 0.000000 0.000000
                            }
                        }
                    }
                }
            }
            JOINT RightShoulder
            {
                OFFSET -3.327397 14.750981 0.036037
                CHANNELS 3 Zrotation Xrotation Yrotation
                JOINT RightArm
                {
                    OFFSET -13.437092 0.000000 0.000000
                    CHANNELS 3 Zrotation Xrotation Yrotation
                    JOINT RightForeArm
                    {
                        OFFSET -22.625980 0.000000 0.000000
                        CHANNELS 3 Zrotation Xrotation Yrotation
                        JOINT RightHand
                        {
                            OFFSET -20.313534 0.000000 0.000000
                            CHANNELS 3 Zrotation Xrotation Yrotation
                            End Site
                            {
                                OFFSET -12.522596 0.000000 0.000000
                            }
                        }
                    }
                }
            }
        }
    }
    JOINT LeftUpLeg
    {
        OFFSET 8.348397 0.000000 0.000000
        CHANNELS 3 Zrotation Xrotation Yrotation
        JOINT LeftLeg
        {
            OFFSET -0.000000 -37.145218 0.000000
            CHANNELS 3 Zrotation Xrotation Yrotation
            JOINT LeftFoot
            {
                OFFSET -0.000000 -30.148611 0.000000
                CHANNELS 3 Zrotation Xrotation Yrotation
                JOINT LeftToeBase
                {
                    OFFSET -0.000000 -5.426458 12.522596
                    CHANNELS 3 Zrotation Xrotation Yrotation
                    End Site
                    {
                        OFFSET -0.000000 0.000000 3.339359
                    }
                }
            }
        }
    }
    JOINT RightUpLeg
    {
        OFFSET -8.348397 0.000000 0.000000
        CHANNELS 3 Zrotation Xrotation Yrotation
        JOINT RightLeg
        {
            OFFSET -0.000000 -37.145218 0.000000
            CHANNELS 3 Zrotation Xrotation Yrotation
            JOINT RightFoot
            {
                OFFSET -0.000000 -30.148611 0.000000
                CHANNELS 3 Zrotation Xrotation Yrotation
                JOINT RightToeBase
                {
                    OFFSET -0.000000 -5.426458 12.522596
                    CHANNELS 3 Zrotation Xrotation Yrotation
                    End Site
                    {
                        OFFSET -0.000000 0.000000 3.339359
                    }
                }
            }
        }
    }
}
MOTION
Frames:    9
Frame Time:    0.040000
-80.345795    78.594955    -89.981628    -14.019014    3.089050    90.466675    -6.459475    -8.934202    -2.838745    3.134617    -6.065814    -2.167417    -8.604916    -5.097062    -29.304922    14.797613    14.021589    -28.766840    13.737512    3.796618    -4.685250    -60.754967    78.690605    -23.984203    -69.796280    34.450069    -46.356258    32.799957    -0.824763    -7.668704    -11.748598    2.679394    -10.838867    81.152145    59.559303    8.509529    -14.890858    -16.829651    11.205555    24.447325    -13.254958    10.278694    -3.800471    -17.458958    -16.010340    4.171566    4.690153    13.639690    -6.787651    14.912891    -0.673268    0.000000    0.000000    -0.000000    -4.835090    -12.044511    -1.249709    7.766801    13.077125    4.188145    -7.292286    -13.908426    -26.784752    0.000000    0.000000    -0.000000    
-80.332336    78.595177    -89.979568    -14.025655    3.136640    90.374458    -1.877015    -17.116367    -5.586504    -1.322690    4.572289    -5.251990    -16.056595    -1.912443    -26.745958    23.942192    12.104408    -24.559601    13.600215    5.796764    -3.371226    -60.028172    77.511154    -19.303818    -61.699539    37.830246    -57.639717    32.142525    0.090704    -5.972523    -16.236864    0.598635    -4.016934    81.985382    51.496971    17.525576    -12.212123    -12.601315    8.077352    23.272938    -9.962883    8.847944    -3.824171    -17.429825    -15.948840    4.195472    4.633246    13.817912    -6.611269    15.136994    -0.973386    0.000000    0.000000    0.000000    -4.868780    -12.065339    -1.206318    7.776051    13.102658    4.233050    -7.232003    -13.934532    -26.793226    0.000000    0.000000    0.000000    
-80.172569    78.649139    -90.078087    -13.523537    2.775061    90.696014    -0.960188    -17.302294    -5.746352    -1.941229    5.309633    -5.510240    -16.362654    -1.809932    -26.605282    24.318621    11.967557    -24.333586    13.558026    5.887402    -3.257098    -59.588654    77.522942    -19.557446    -61.435894    37.909565    -58.104660    32.180946    0.014332    -5.938021    -16.441296    0.447381    -3.688212    82.082909    51.110764    17.778656    -12.075455    -12.436223    8.004189    23.151871    -9.850350    8.710597    -3.500744    -16.258369    -20.342403    4.019232    3.608495    17.702719    -6.446755    15.688038    -0.761256    0.000000    0.000000    0.000000    -4.686021    -11.227012    -1.719373    7.824358    12.789632    4.276084    -7.002201    -13.628140    -26.622282    0.000000    0.000000    0.000000    
-80.317825    78.589111    -89.954941    -14.009879    3.128793    90.348969    -1.834884    -17.468676    -5.712305    -1.290924    5.048883    -5.373461    -16.437979    -1.801824    -26.586420    24.427408    11.908530    -24.285732    13.526963    5.863006    -3.290122    -59.803665    77.527328    -19.336523    -61.697643    37.819744    -57.998489    32.305946    -0.233233    -5.933451    -16.430132    0.468055    -3.684046    82.004494    51.078926    17.826929    -12.142028    -12.398566    8.002786    23.349043    -9.787139    8.736425    -3.792219    -17.398970    -15.978006    4.206472    4.630329    13.912686    -6.658773    15.101332    -1.025870    0.000000    0.000000    0.000000    -4.840062    -12.049473    -1.235923    7.777671    13.126120    4.254649    -7.356974    -13.935879    -26.758898    0.000000    0.000000    0.000000    
-80.171974    78.643379    -90.051323    -13.521889    2.767930    90.688843    -2.007446    -15.985907    -5.278820    -0.837839    3.636704    -4.970328    -14.893945    -2.094726    -26.969896    22.667391    11.999989    -24.985062    13.558793    5.665558    -3.869936    -59.106007    77.545937    -20.956205    -63.036381    37.390678    -56.254288    32.456692    -0.424321    -6.135999    -17.079340    -0.761507    -5.001430    85.301170    52.662251    13.491801    -12.437444    -13.237172    8.348955    23.184944    -10.477437    9.284087    -3.480580    -16.268641    -20.337086    4.018252    3.620347    18.146935    -6.344423    15.749044    -1.166333    0.000000    0.000000    0.000000    -4.674787    -11.249154    -1.742091    7.845654    12.847388    4.362350    -6.975163    -13.668665    -26.677992    0.000000    0.000000    0.000000    
-80.313805    78.579834    -89.926590    -14.014235    3.116096    90.360786    -2.795925    -16.237501    -5.227194    -0.367657    3.459281    -4.817157    -14.859870    -2.082838    -26.919970    22.787077    11.971341    -24.930494    13.612899    5.675138    -3.859255    -58.953075    77.505608    -21.103407    -62.974964    37.301044    -56.290497    32.017830    -0.535401    -6.283623    -17.039717    -0.782510    -5.023469    85.480698    52.656128    13.372723    -12.437200    -13.162473    8.303920    23.186829    -10.393250    9.350188    -3.772537    -17.414949    -15.984447    4.254727    4.625286    13.818497    -6.806209    15.188394    -1.112838    0.000000    0.000000    0.000000    -4.821541    -12.064620    -1.260440    7.787661    13.167125    4.269437    -7.334217    -13.973273    -26.743879    0.000000    0.000000    0.000000    
-80.154991    78.638550    -90.015533    -13.518096    2.760901    90.689629    -1.987704    -16.149363    -5.270885    -0.944761    3.866677    -4.956963    -14.872808    -2.103546    -26.857681    22.936659    11.975052    -24.856071    13.629447    5.634689    -3.864700    -59.066292    77.503944    -20.981590    -63.155743    37.257996    -56.210979    32.195148    -0.697491    -6.348057    -16.984976    -0.797292    -5.066247    85.647942    52.572289    13.244275    -11.442954    -14.119719    8.828875    20.163347    -11.774032    8.536949    -3.453828    -16.257818    -20.333708    4.042841    3.646472    17.942551    -6.478138    15.696096    -0.970876    0.000000    0.000000    0.000000    -4.647473    -11.247704    -1.752982    7.868854    12.892244    4.333891    -7.074548    -13.704048    -26.663515    0.000000    0.000000    0.000000    
-80.299599    78.578705    -89.887169    -14.004138    3.116571    90.372345    -2.902111    -16.349558    -5.244133    -0.278051    3.669723    -4.818242    -14.863439    -2.215813    -26.775286    22.963881    12.053536    -24.770576    13.632594    5.586649    -3.858909    -59.277416    77.497894    -20.801016    -62.982212    37.276852    -56.412506    31.912357    -0.582788    -5.967182    -16.975428    -0.810735    -5.134295    85.841393    52.663361    13.085239    -12.486042    -12.969924    8.248145    23.351902    -10.201051    9.283795    -3.751933    -17.398603    -15.962738    4.210820    4.705887    13.980663    -6.483656    14.899359    -1.181847    0.000000    0.000000    0.000000    -4.805112    -12.051503    -1.283480    7.808477    13.190833    4.302011    -7.335220    -13.997715    -26.764372    0.000000    0.000000    0.000000    
-80.140373    78.636284    -89.973541    -13.499464    2.772790    90.693535    -2.173935    -16.235271    -5.309203    -0.715301    4.034547    -4.973886    -14.914538    -2.301567    -26.619894    23.034836    12.131449    -24.599253    13.573849    5.640568    -3.804689    -58.996132    77.487732    -21.063757    -62.986637    37.302628    -56.460270    32.010410    -0.592735    -5.935544    -17.009172    -0.815799    -5.126427    86.057510    52.670147    12.938957    -12.518502    -13.003568    8.163638    23.445879    -10.230231    9.302202    -3.432697    -16.217262    -20.349112    4.028037    3.648402    17.991865    -6.333679    15.588496    -1.026612    0.000000    0.000000    0.000000    -4.629704    -11.224689    -1.798241    7.857825    12.907741    4.412220    -7.154144    -13.695247    -26.661522    0.000000    0.000000    0.000000    
